<?xml version="1.0" standalone="no"?>
<!DOCTYPE svg PUBLIC "-//W3C//DTD SVG 20010904//EN"
 "http://www.w3.org/TR/2001/REC-SVG-20010904/DTD/svg10.dtd">
<svg version="1.0" xmlns="http://www.w3.org/2000/svg"
 width="325.000000pt" height="358.000000pt" viewBox="0 0 325.000000 358.000000"
 preserveAspectRatio="xMidYMid meet">
<metadata>
Created by potrace 1.11, written by Peter Selinger 2001-2013
</metadata>
<g transform="translate(0.000000,358.000000) scale(0.100000,-0.100000)"
fill="#000000" stroke="none">
<path d="M1522 3533 c-59 -21 -48 -26 16 -7 51 15 94 15 212 -1 25 -4 52 -9
60 -12 8 -3 25 -5 37 -4 14 1 24 -5 28 -18 4 -12 15 -21 26 -21 11 0 17 5 14
10 -3 6 -13 10 -22 10 -9 0 -13 3 -10 6 8 8 68 -14 82 -30 6 -6 19 -16 30 -22
11 -6 27 -25 36 -43 8 -18 17 -31 20 -29 2 1 18 -7 34 -20 l29 -23 -27 5 c-16
3 -25 1 -22 -5 4 -5 12 -9 19 -9 8 0 11 -10 8 -32 -4 -25 -2 -30 11 -25 22 8
29 -29 8 -45 -14 -11 -14 -11 -3 3 10 14 10 18 -3 22 -8 4 -14 3 -14 -1 4 -22
-3 -32 -21 -32 -12 0 -20 -7 -20 -16 0 -13 -7 -15 -32 -11 -18 3 -27 3 -20 0
10 -4 10 -8 1 -19 -6 -8 -16 -14 -21 -14 -6 0 -19 -11 -30 -25 -11 -14 -29
-25 -40 -25 -18 0 -19 -4 -13 -37 4 -21 8 -45 9 -53 0 -8 9 -21 19 -28 17 -13
14 -38 -4 -27 -5 4 -9 1 -9 -4 0 -6 5 -11 11 -11 6 0 9 -7 5 -15 -3 -8 -1 -15
5 -15 5 0 7 -11 3 -25 -5 -21 -3 -25 15 -25 12 0 21 -6 21 -15 0 -8 -5 -15
-12 -15 -9 0 -9 -3 0 -12 14 -14 16 -28 4 -28 -4 0 -19 22 -33 49 -13 27 -27
47 -31 44 -5 -2 -8 5 -8 17 0 11 -9 28 -19 37 -11 9 -18 20 -15 24 2 5 -4 13
-15 19 -11 6 -18 17 -15 24 3 8 1 17 -5 21 -6 3 -11 15 -11 26 0 19 -1 19 -16
4 -9 -9 -18 -28 -19 -43 -1 -15 -5 -34 -9 -42 -3 -8 -7 -32 -9 -53 -2 -21 -11
-47 -20 -58 -15 -17 -15 -20 8 -43 14 -14 25 -30 25 -36 0 -5 8 -10 18 -10 14
0 15 2 2 10 -21 13 -6 12 25 -2 29 -13 36 -62 10 -72 -8 -3 -15 -12 -15 -21 0
-8 -8 -15 -19 -15 -23 0 -45 -25 -35 -41 4 -7 3 -9 -4 -5 -6 3 -14 2 -17 -4
-4 -6 -16 -8 -27 -4 -14 4 -18 2 -14 -5 4 -6 1 -11 -7 -11 -18 0 -41 -26 -29
-34 5 -3 10 -18 10 -33 3 -46 9 -83 15 -89 3 -4 -3 -15 -14 -27 -19 -20 -23
-39 -19 -84 1 -13 -3 -23 -9 -23 -6 0 -11 -6 -11 -12 -1 -17 -48 -51 -60 -43
-5 3 -21 -5 -34 -18 -14 -14 -28 -22 -31 -18 -4 3 -17 6 -30 6 -33 1 -20 -25
16 -32 28 -5 41 -23 17 -23 -6 0 -8 -3 -4 -7 11 -11 -72 -44 -141 -55 -73 -13
-108 -3 -110 31 -1 13 -24 44 -51 70 -40 39 -52 58 -66 112 -25 93 -26 125 -2
121 10 -2 16 0 13 5 -3 4 -2 48 2 96 6 84 6 88 -16 103 -13 8 -23 23 -23 34 0
17 -3 19 -19 8 -11 -7 -18 -15 -16 -19 5 -6 -53 -19 -89 -19 -13 0 -17 5 -13
19 3 12 -1 22 -9 25 -8 3 -14 10 -14 17 0 6 7 8 16 5 13 -5 15 -1 10 19 -4 14
-2 25 4 25 5 0 10 6 10 14 0 8 7 16 15 20 8 3 15 12 15 21 0 8 5 15 10 15 14
0 12 37 -2 43 -9 4 -9 6 -1 6 6 1 9 10 6 21 -3 11 3 32 13 47 10 16 17 32 16
37 -2 4 3 15 10 24 7 8 14 30 14 49 1 18 7 47 14 63 22 54 5 42 -33 -22 -28
-48 -37 -73 -37 -109 0 -69 -34 -137 -76 -155 -40 -17 -52 -39 -35 -66 10 -16
7 -23 -17 -47 -38 -39 -55 -113 -36 -159 13 -32 15 -33 58 -27 l45 7 21 -73
c27 -94 30 -99 71 -127 22 -15 45 -46 66 -89 25 -51 50 -82 109 -134 42 -38
83 -69 91 -69 10 0 11 -4 3 -19 -14 -28 -13 -36 5 -21 12 10 21 7 50 -19 20
-17 42 -31 49 -31 8 0 22 -12 32 -27 24 -37 44 -52 72 -53 15 0 26 -7 29 -20
3 -11 13 -20 22 -21 39 -1 137 -10 148 -14 13 -4 12 -43 -2 -118 -8 -43 -53
-85 -112 -106 -37 -13 -103 -72 -103 -92 0 -30 -119 -156 -134 -141 -4 3 -4
-1 0 -11 8 -22 -80 -106 -113 -108 -32 -2 -33 -2 -80 -26 l-43 -21 7 26 c6 26
6 26 -17 11 -13 -9 -25 -21 -26 -28 -1 -6 0 -7 3 -1 2 5 9 7 14 4 6 -3 6 -11
-2 -20 -6 -7 -14 -12 -18 -9 -9 5 -6 -78 3 -93 4 -6 14 -8 23 -5 11 4 14 3 9
-5 -4 -7 -16 -12 -27 -12 -11 0 -19 -7 -19 -17 0 -15 -2 -16 -10 -3 -12 18
-13 30 -2 29 21 -4 24 3 6 16 -26 19 -31 19 -48 -7 -22 -33 -30 -90 -14 -99 7
-4 9 -11 6 -14 -4 -4 -12 -4 -18 0 -16 10 -7 70 18 123 11 23 19 42 17 42 -2
0 -16 -11 -31 -25 -34 -32 -44 -32 -44 1 0 14 4 23 9 20 5 -3 12 6 15 20 6 22
9 24 23 12 14 -11 16 -11 8 1 -6 11 -4 13 9 8 10 -4 15 -3 11 3 -3 6 -1 10 4
10 6 0 11 7 11 15 0 8 -5 15 -11 15 -7 0 -8 7 -4 18 4 9 8 23 9 30 1 7 8 18
15 25 10 10 11 6 7 -16 -7 -38 13 -34 21 4 4 20 8 26 14 18 6 -10 11 -10 23 0
9 8 16 19 16 26 0 12 61 65 74 65 3 0 6 -7 6 -15 0 -10 12 -2 31 20 27 30 37
35 59 30 22 -5 32 -1 43 16 12 16 22 20 41 15 34 -8 33 6 -4 46 -27 30 -29 31
-30 11 0 -12 -5 -25 -12 -29 -8 -5 -9 -2 -5 10 4 11 3 15 -4 10 -6 -3 -8 -17
-5 -30 6 -24 -7 -33 -19 -14 -4 6 -13 7 -24 1 -11 -6 -34 -6 -61 0 -28 6 -45
6 -49 0 -4 -5 -19 -13 -34 -16 -15 -4 -30 -11 -33 -16 -3 -5 -10 -9 -16 -9 -6
0 -3 9 7 20 11 12 13 20 6 20 -6 0 -20 -15 -31 -32 -12 -20 -20 -26 -20 -17 0
9 7 22 15 29 8 7 15 19 15 26 0 16 22 18 36 4 7 -7 21 -7 42 1 32 11 43 29 20
29 -7 0 -5 5 4 11 10 5 24 9 30 8 34 -4 37 2 18 34 -21 34 -25 47 -12 47 4 0
13 -14 19 -31 13 -35 37 -35 39 0 1 12 3 23 5 24 26 18 64 55 66 64 1 6 -4 14
-13 17 -8 3 -12 2 -9 -4 3 -6 -1 -10 -10 -10 -12 0 -15 6 -9 23 4 12 11 25 16
28 7 4 7 9 0 13 -12 7 -3 58 12 69 6 5 2 7 -12 4 -17 -4 -23 0 -26 16 -7 32
-2 117 6 117 4 0 5 7 2 15 -8 21 -24 19 -24 -2 0 -10 -25 -37 -55 -60 -30 -24
-55 -47 -55 -53 0 -5 -20 -21 -44 -35 -38 -22 -47 -35 -61 -78 -9 -29 -30 -89
-47 -133 l-30 -82 -167 -86 -167 -85 -46 -73 c-123 -195 -244 -431 -366 -713
-72 -165 -155 -354 -185 -420 l-55 -120 1566 -3 c861 -1 1568 1 1571 4 3 3 9
132 12 287 4 155 11 300 17 322 22 87 24 177 4 245 -11 36 -36 124 -57 195
-40 140 -80 228 -151 334 -53 81 -140 142 -338 239 l-128 64 7 44 c3 24 6 86
6 138 1 86 -2 99 -32 157 -69 138 -99 159 -224 159 -97 0 -90 -9 -76 105 6 45
4 68 -7 91 -21 45 -6 67 47 70 41 2 111 43 111 65 0 5 16 9 35 9 35 0 37 2 77
86 38 80 42 94 42 169 1 69 -2 87 -19 105 -34 38 -74 53 -123 46 -42 -6 -44
-5 -38 17 30 102 28 198 -5 253 -31 51 -209 199 -310 257 -60 35 -123 54 -241
72 -121 19 -200 18 -256 -2z"/>
<path d="M1123 2951 c-13 -11 -24 -27 -25 -38 -4 -30 13 -103 24 -103 6 0 5
-6 -2 -15 -10 -13 -9 -15 9 -15 11 0 21 -6 21 -14 0 -17 27 -29 35 -16 4 6 2
10 -4 10 -8 0 -8 8 -2 39 1 2 8 -2 16 -9 10 -8 30 -10 63 -5 l50 7 -3 52 c-3
65 -7 73 -48 81 -17 4 -47 16 -65 26 -40 23 -41 23 -69 0z"/>
<path d="M1496 2955 c-45 -16 -47 -18 -73 -70 -53 -106 -73 -158 -73 -191 0
-19 -5 -45 -11 -56 -10 -18 -9 -20 5 -15 10 4 15 3 11 -3 -3 -5 -1 -18 5 -29
12 -24 5 -47 -18 -55 -70 -25 -70 -25 -83 7 l-13 31 -8 -30 c-9 -31 -9 -31 67
-81 33 -21 47 -24 87 -20 51 6 104 32 113 55 5 14 -28 86 -45 97 -5 3 -10 17
-10 30 0 13 -5 25 -10 27 -6 2 -1 14 11 27 17 18 23 36 23 71 0 43 2 46 22 42
14 -2 31 5 46 20 l23 23 3 -22 c3 -22 9 -25 67 -36 18 -4 18 -5 -5 -15 -22
-10 -18 -11 32 -9 40 1 59 7 67 19 7 12 6 18 -4 22 -9 3 -15 18 -15 35 0 17
-6 31 -16 35 -12 5 -14 10 -5 19 8 11 5 19 -13 36 -14 14 -22 30 -19 40 3 12
1 11 -11 -3 -14 -17 -16 -18 -16 -3 0 14 -9 17 -47 17 -27 -1 -65 -7 -87 -15z"/>
</g>
</svg>
